<svg xmlns="http://www.w3.org/2000/svg" viewBox="0 0 32 32" fill="none">
  <defs>
    <linearGradient id="bg" x1="0" y1="0" x2="32" y2="32">
      <stop offset="0%" stop-color="#2563eb"/>
      <stop offset="100%" stop-color="#4f46e5"/>
    </linearGradient>
  </defs>
  <rect width="32" height="32" rx="8" fill="url(#bg)"/>
  <path d="M16 7a5 5 0 0 1 5 5v1a1 1 0 0 1-1 1h-1v2h2a1 1 0 0 1 1 1v2a1 1 0 0 1-1 1h-2v1h2a1 1 0 0 1 1 1v2a1 1 0 0 1-1 1H11a1 1 0 0 1-1-1v-2a1 1 0 0 1 1-1h2v-1h-2a1 1 0 0 1-1-1v-2a1 1 0 0 1 1-1h2v-2h-1a1 1 0 0 1-1-1v-1a5 5 0 0 1 5-5z" fill="white" opacity="0.95"/>
</svg>
